<?xml version="1.0" standalone="no"?>
<!DOCTYPE svg PUBLIC "-//W3C//DTD SVG 20010904//EN"
 "http://www.w3.org/TR/2001/REC-SVG-20010904/DTD/svg10.dtd">
<svg version="1.0" xmlns="http://www.w3.org/2000/svg"
 width="260.000000pt" height="260.000000pt" viewBox="0 0 260.000000 260.000000"
 preserveAspectRatio="xMidYMid meet">
<metadata>
Created by potrace 1.14, written by Peter Selinger 2001-2017
</metadata>
<g transform="translate(0.000000,260.000000) scale(0.100000,-0.100000)"
fill="#000000" stroke="none">
<path d="M410 2130 l0 -60 425 0 425 0 0 -770 0 -770 -565 0 -565 0 0 345 c0
338 0 345 -20 345 -19 0 -20 7 -20 180 0 173 -1 180 -20 180 -19 0 -20 7 -20
185 l0 185 -25 0 -25 0 0 -770 0 -770 1300 0 1300 0 0 890 0 890 -1095 0
-1095 0 0 -60z m2060 -80 c0 -13 -7 -20 -20 -20 -20 0 -20 -7 -20 -730 l0
-730 -525 0 c-518 0 -525 0 -525 -20 0 -13 -7 -20 -20 -20 -20 0 -20 7 -20
750 0 737 0 750 20 770 20 20 33 20 565 20 538 0 545 0 545 -20z"/>
<path d="M1580 1890 c0 -13 -7 -20 -20 -20 -20 0 -20 -7 -20 -590 l0 -590 80
0 80 0 0 245 c0 298 -6 285 125 285 78 0 85 -2 85 -20 0 -13 7 -20 20 -20 13
0 20 -7 20 -20 0 -13 7 -20 20 -20 13 0 20 -7 20 -20 0 -13 7 -20 20 -20 18 0
20 -7 20 -60 0 -53 2 -60 20 -60 17 0 20 -7 20 -40 0 -33 3 -40 20 -40 18 0
20 -7 20 -65 0 -58 2 -65 20 -65 17 0 20 -7 20 -40 l0 -40 84 0 c93 0 116 11
116 56 0 17 -5 24 -20 24 -17 0 -20 7 -20 45 0 38 -3 45 -20 45 -18 0 -20 7
-20 60 0 53 -2 60 -20 60 -17 0 -20 7 -20 40 0 33 -3 40 -20 40 -17 0 -20 7
-20 40 0 33 -3 40 -20 40 -15 0 -20 7 -20 25 0 14 -9 30 -20 37 -11 7 -20 23
-20 35 0 16 -6 23 -20 23 -13 0 -20 7 -20 20 0 17 7 20 40 20 33 0 40 3 40 20
0 13 7 20 20 20 13 0 20 7 20 20 0 13 7 20 20 20 17 0 20 7 20 40 0 33 3 40
20 40 19 0 20 7 20 120 0 113 -1 120 -20 120 -15 0 -20 7 -20 25 0 18 -5 25
-20 25 -13 0 -20 7 -20 20 0 13 -7 20 -20 20 -13 0 -20 7 -20 20 0 13 -7 20
-20 20 -13 0 -20 7 -20 20 0 18 -7 20 -80 20 -73 0 -80 2 -80 20 0 19 -7 20
-185 20 -178 0 -185 -1 -185 -20z m410 -165 c0 -18 5 -25 20 -25 11 0 23 -7
26 -15 4 -8 12 -15 20 -15 11 0 14 -25 14 -125 l0 -125 -30 0 c-19 0 -34 -7
-42 -20 -12 -18 -24 -20 -155 -20 l-143 0 0 185 0 185 145 0 145 0 0 -25z"/>
<path d="M610 1890 c0 -18 -7 -20 -60 -20 -53 0 -60 -2 -60 -20 0 -13 -7 -20
-20 -20 -13 0 -20 -7 -20 -20 0 -13 -7 -20 -20 -20 -13 0 -20 -7 -20 -20 0
-13 -7 -20 -20 -20 -18 0 -20 -7 -20 -65 0 -58 -2 -65 -20 -65 -17 0 -20 -7
-20 -40 0 -33 3 -40 20 -40 18 0 20 -7 20 -60 0 -53 2 -60 20 -60 12 0 20 -7
20 -17 0 -22 42 -63 64 -63 9 0 16 -8 16 -20 0 -17 7 -20 40 -20 33 0 40 -3
40 -20 0 -17 7 -20 40 -20 33 0 40 -3 40 -20 0 -17 7 -20 40 -20 33 0 40 -3
40 -20 0 -13 7 -20 20 -20 13 0 20 -7 20 -20 0 -13 7 -20 20 -20 11 0 23 -7
26 -15 3 -8 14 -17 25 -20 17 -6 19 -17 19 -106 0 -99 0 -99 -25 -99 -18 0
-25 -5 -25 -20 0 -13 -7 -20 -20 -20 -15 0 -20 -7 -20 -25 l0 -25 -120 0 -120
0 0 25 c0 24 -3 25 -60 25 -53 0 -60 2 -60 20 0 17 -7 20 -40 20 l-40 0 0 -65
c0 -58 2 -65 20 -65 13 0 20 -7 20 -20 0 -13 7 -20 20 -20 13 0 20 -7 20 -20
0 -19 7 -20 225 -20 218 0 225 1 225 20 0 13 7 20 20 20 13 0 20 7 20 20 0 17
7 20 40 20 l40 0 0 45 c0 38 3 45 20 45 17 0 20 7 20 40 0 33 3 40 20 40 18 0
20 7 20 80 0 73 -2 80 -20 80 -17 0 -20 7 -20 40 0 32 -4 40 -18 40 -12 0 -21
11 -27 33 -8 24 -18 34 -42 42 -22 6 -33 15 -33 27 0 11 -7 18 -20 18 -13 0
-20 7 -20 20 0 17 -7 20 -45 20 -38 0 -45 3 -45 20 0 17 -7 20 -40 20 -33 0
-40 3 -40 20 0 17 -7 20 -40 20 -33 0 -40 3 -40 20 0 13 -7 20 -20 20 -13 0
-20 7 -20 20 0 13 -7 20 -20 20 -17 0 -20 7 -20 40 0 33 -3 40 -20 40 -13 0
-20 7 -20 20 0 13 7 20 20 20 17 0 20 7 20 40 0 33 3 40 20 40 15 0 20 7 20
25 0 23 4 25 40 25 33 0 40 3 40 20 0 17 7 20 40 20 33 0 40 -3 40 -20 0 -18
7 -20 65 -20 63 0 65 -1 65 -25 0 -24 3 -25 60 -25 l60 0 0 65 c0 58 -2 65
-20 65 -13 0 -20 7 -20 20 0 18 -7 20 -65 20 -58 0 -65 2 -65 20 0 19 -7 20
-100 20 -93 0 -100 -1 -100 -20z"/>
</g>
</svg>
